<?xml version="1.0" standalone="no"?>
<!DOCTYPE svg PUBLIC "-//W3C//DTD SVG 20010904//EN"
 "http://www.w3.org/TR/2001/REC-SVG-20010904/DTD/svg10.dtd">
<svg version="1.0" xmlns="http://www.w3.org/2000/svg"
 width="363.000000pt" height="363.000000pt" viewBox="0 0 363.000000 363.000000"
 preserveAspectRatio="xMidYMid meet">
<metadata>
Created by potrace 1.11, written by Peter Selinger 2001-2013
</metadata>
<g transform="translate(0.000000,363.000000) scale(0.100000,-0.100000)"
fill="#000000" stroke="none">
<path d="M1635 3603 c-182 -22 -391 -76 -534 -137 -534 -230 -929 -709 -1053
-1280 -20 -90 -22 -130 -22 -376 -1 -307 7 -361 79 -578 188 -564 666 -1011
1243 -1162 205 -54 514 -72 717 -42 558 84 1032 409 1317 904 102 176 175 396
209 620 50 335 -6 716 -149 1022 -136 289 -362 554 -628 733 -285 193 -664
305 -1017 302 -73 -1 -145 -4 -162 -6z m1637 -1039 c21 -13 6 -34 -24 -34 -47
0 -140 -100 -335 -361 -200 -269 -283 -367 -414 -494 -146 -141 -247 -206
-345 -221 -41 -6 -42 -8 -49 -49 -9 -61 -42 -106 -100 -135 -42 -21 -64 -25
-135 -25 -242 0 -442 147 -686 504 -49 72 -92 131 -95 131 -9 0 -129 -253
-129 -272 0 -32 35 -19 80 30 32 35 45 43 47 31 5 -21 -47 -98 -93 -139 -30
-26 -41 -30 -68 -24 -43 9 -46 12 -46 43 0 38 30 124 85 238 25 53 45 97 45
98 0 2 -11 6 -25 9 -19 5 -25 13 -25 35 0 38 22 55 64 48 l34 -5 46 89 c25 50
46 101 46 115 0 78 139 214 217 214 56 0 103 -32 103 -71 0 -5 -13 -9 -28 -9
-61 0 -156 -98 -267 -276 -61 -96 -60 -107 10 -98 242 33 445 112 560 217 55
50 56 53 45 82 -6 17 -10 59 -8 95 l3 64 -55 28 c-129 65 -414 64 -650 -2
-139 -39 -251 -114 -289 -193 -39 -80 -27 -116 53 -160 50 -28 58 -47 19 -47
-42 0 -116 51 -136 93 -22 46 -21 112 2 162 41 91 218 207 381 250 99 26 364
32 471 11 88 -18 193 -62 223 -95 17 -18 18 -18 67 15 71 47 136 65 267 71
101 5 112 8 112 24 0 28 36 24 56 -6 9 -14 24 -25 34 -25 10 0 47 -9 84 -20
60 -19 96 -47 96 -74 0 -9 -50 -4 -135 14 -27 6 -55 8 -61 6 -6 -2 -14 -34
-17 -70 -7 -71 -50 -204 -142 -435 -58 -146 -105 -309 -105 -363 0 -18 10 -39
25 -54 21 -21 31 -24 58 -19 57 12 130 50 212 112 141 105 258 245 401 480
214 352 275 423 402 469 33 12 93 11 114 -2z"/>
<path d="M2103 2435 c-88 -16 -159 -39 -198 -65 -27 -18 -30 -25 -31 -77 0
-32 -4 -68 -8 -80 -6 -19 -1 -25 33 -43 23 -11 41 -25 41 -30 0 -15 -43 -12
-68 6 -22 15 -25 13 -89 -46 -112 -102 -275 -166 -500 -195 -63 -8 -119 -15
-124 -15 -21 0 226 -294 299 -357 151 -129 271 -184 409 -191 82 -4 96 -2 128
18 43 27 81 90 54 90 -27 0 -81 35 -94 61 -8 15 -15 47 -15 70 0 54 59 227
153 449 77 180 140 344 152 393 7 26 6 27 -31 26 -22 0 -71 -7 -111 -14z"/>
</g>
</svg>
